<svg version="1.0" id="Layer_1" xmlns="http://www.w3.org/2000/svg" xmlns:xlink="http://www.w3.org/1999/xlink" x="0px" y="0px" viewBox="0 0 150 81" enable-background="new 0 0 150 81" xml:space="preserve"><linearGradient id="full_1_" gradientUnits="userSpaceOnUse" x1="1493.5" y1="2711.7009" x2="1493.5" y2="2628.4751" gradientTransform="matrix(1 0 0 1 -1418.5 -2641.9941)"><stop offset="0" style="stop-color:#2B233D"></stop><stop offset="1" style="stop-color:#2B233D"></stop></linearGradient><path id="full" fill="url(#full_1_)" d="M82.4,40.3c0-0.8-0.6-1.4-1.4-1.4c-5,0-8.1,1.8-9.9,3.9V23.3c0-0.8-0.6-1.4-1.4-1.4 c-0.8,0-1.4,0.6-1.4,1.4v36.8c0,0.8,0.6,1.4,1.4,1.4c0.8,0,1.4-0.6,1.4-1.4c0,0,0-4.3,0-9.9c0-8.5,9.9-8.5,9.9-8.5 C81.8,41.8,82.4,41.1,82.4,40.3z M64,38.9c-1.3,0-2.4,0.1-3.5,0.3c-6.3-0.2-11.4-5.4-11.4-11.7c0-6.4,5.1-11.6,11.5-11.7l1.6,0 l-0.4-1.6c-0.2-0.7-0.2-1.4-0.2-2.1c0-5.2,4.2-9.5,9.5-9.5c5.2,0,9.5,4.2,9.5,9.5c0,0.5,0,1-0.1,1.5h0c0,0.7,0.6,1.2,1.3,1.2 c0.7,0,1.2-0.5,1.3-1.1c0,0,0,0,0,0c0.1-0.5,0.1-1.1,0.1-1.6c0-3.3-1.3-6.3-3.5-8.5C77.5,1.4,74.4,0,71.1,0C64.4,0,59,5.4,59,12.1 c0,0.4,0,0.8,0.1,1.2c-7.1,0.9-12.5,6.9-12.5,14.2c0,6.2,4,11.6,9.5,13.5c-4.8,3.3-4.8,9.2-4.8,9.2v9.9c0,0.8,0.6,1.4,1.4,1.4 s1.4-0.6,1.4-1.4c0,0,0-4.3,0-9.9c0-8.5,9.9-8.5,9.9-8.5c0.8,0,1.4-0.6,1.4-1.4C65.4,39.6,64.8,38.9,64,38.9z M37.9,38.9 c-11.3,0-11.3,11.3-11.3,11.3s0,11.3,11.3,11.3c3.2,0,5.5-0.9,7.1-2.2l1.7,1.8c0,0,0,0,0.1,0.1l0,0l0,0c0.2,0.2,0.6,0.4,0.9,0.4 c0.8,0,1.4-0.6,1.4-1.4c0-0.4-0.2-0.7-0.4-1l0,0L47,57.3h-4.1c-2.3,1.5-5,1.5-5,1.5s-8.5,0-8.5-8.5c0-8.5,8.5-8.5,8.5-8.5 s8.5,0,8.5,8.5v4.3c0,0.8,0.6,1.4,1.4,1.4c0.8,0,1.4-0.6,1.4-1.4v-4.3C49.2,50.3,49.2,38.9,37.9,38.9z M13.2,38.9 C1.9,38.9,1.9,50.3,1.9,50.3v13.2l-1.6,4C0.1,67.7,0,68,0,68.3c0,0.8,0.6,1.4,1.4,1.4c0.5,0,1-0.3,1.2-0.7l0,0l0,0 c0.1-0.1,0.1-0.2,0.1-0.3l1.8-4.4c0.1-0.2,0.1-0.4,0.1-0.6V50.3c0-8.5,8.5-8.5,8.5-8.5s8.5,0,8.5,8.5c0,8.5-8.5,8.5-8.5,8.5H8v0 c-0.8,0-1.4,0.6-1.4,1.4c0,0.8,0.6,1.4,1.4,1.4c0,0,0,0,0,0v0h5.2c11.3,0,11.3-11.3,11.3-11.3S24.6,38.9,13.2,38.9z M138.7,38.9 c-3.2,0-5.5,0.9-7.1,2.2l-1.8-1.8c0,0,0,0-0.1-0.1l0,0l0,0c-0.2-0.2-0.6-0.4-0.9-0.4c-0.8,0-1.4,0.6-1.4,1.4c0,0.4,0.2,0.7,0.4,1h0 l1.8,1.9h4.1c2.3-1.5,5-1.5,5-1.5s8.5,0,8.5,8.5v9.9c0,0.8,0.6,1.4,1.4,1.4c0.8,0,1.4-0.6,1.4-1.4v-9.9 C150,50.3,150,38.9,138.7,38.9z M123.1,38.9c-0.8,0-1.4,0.6-1.4,1.4v14.2c0,0.8,0.6,1.4,1.4,1.4s1.4-0.6,1.4-1.4V40.3 C124.5,39.6,123.9,38.9,123.1,38.9z M128.7,44.6c-0.8,0-1.4,0.6-1.4,1.4v14.2c0,0.8,0.6,1.4,1.4,1.4c0.8,0,1.4-0.6,1.4-1.4V46 C130.2,45.2,129.5,44.6,128.7,44.6z M124.1,59.2l-1.8-1.9h-4.1c-2.3,1.5-5,1.5-5,1.5s-8.5,0-8.5-8.5v-9.9c0-0.8-0.6-1.4-1.4-1.4 c-0.8,0-1.4,0.6-1.4,1.4v9.9c0,0,0,11.3,11.3,11.3c3.2,0,5.5-0.9,7.1-2.2l1.8,1.8c0,0,0,0,0.1,0.1l0,0l0,0c0.2,0.2,0.6,0.4,0.9,0.4 c0.8,0,1.4-0.6,1.4-1.4C124.5,59.8,124.3,59.5,124.1,59.2L124.1,59.2L124.1,59.2L124.1,59.2z M98,38.9c-12.8,0-12.8,11.3-12.8,11.3 V57l-8.7-8.9c-0.1-0.1-0.2-0.3-0.4-0.4l0,0c-0.2-0.2-0.5-0.3-0.8-0.3c-0.8,0-1.4,0.6-1.4,1.4c0,0.4,0.1,0.7,0.4,0.9l0,0l0,0 c0,0,0,0,0.1,0.1l11.1,11.1c0.1,0.2,0.3,0.3,0.4,0.4l0,0l0,0c0.2,0.1,0.5,0.2,0.7,0.2c0.8,0,1.4-0.6,1.4-1.4c0,0,0-4.3,0-9.9 c0-8.5,9.9-8.5,9.9-8.5c0.8,0,1.4-0.6,1.4-1.4C99.4,39.6,98.8,38.9,98,38.9z"></path><g id="mini" opacity="0"><path id="bg" fill="#2B233D" d="M25,30.8c-13.8,0-25,11.2-25,25s11.2,25,25,25s25-11.2,25-25S38.8,30.8,25,30.8L25,30.8z"></path><path id="ring" fill="#FFFFFF" d="M25,32.8c12.7,0,23,10.3,23,23c0,12.7-10.3,23-23,23S2,68.5,2,55.8C2,43.2,12.3,32.8,25,32.8"></path><path id="logomini" fill="#2B233D" d="M25,51.1c-0.6,0-1.2,0.5-1.2,1.2v17.3c0,0.7,0.5,1.2,1.2,1.2c0.6,0,1.2-0.5,1.2-1.2V65 c0-1.4,0.7-2.4,2-3c1-0.5,2.1-0.5,2.1-0.5c0.6,0,1.2-0.5,1.2-1.2c0-0.7-0.5-1.2-1.2-1.2c-1.6,0-3,0.4-4.1,1.2v-8 C26.2,51.7,25.7,51.1,25,51.1 M25.7,40.9c-3.4,0-6.1,2.8-6.1,6.2l0,0.1c-3.4,0.7-5.8,3.6-5.8,7.1c0,2.1,0.9,4.1,2.4,5.4 c0.4,0.3,2.3,1.9,4.9,1.9h0.1l0.1,0l0.2,0l0.1,0c0.5-0.1,0.9-0.6,0.9-1.1c0-0.7-0.5-1.2-1.2-1.2h-0.5c-2.7-0.1-4.7-2.3-4.8-5 c0-2.7,2.2-4.9,4.8-5l0.7,0c0.2,0,0.3-0.1,0.4-0.2c0.1-0.1,0.1-0.3,0.1-0.4l-0.2-0.7c-0.1-0.3-0.1-0.6-0.1-0.9 c0-2.2,1.7-3.9,3.9-3.9c2.1,0,3.9,1.8,3.9,3.9c0,0.2,0,0.4-0.1,0.6c0,0.1,0,0.2,0,0.3c0.1,0.5,0.6,0.9,1.1,0.9c0.5,0,1-0.4,1.1-0.9 l0-0.1c0-0.3,0.1-0.6,0.1-0.8c0-1.7-0.6-3.2-1.8-4.4C28.8,41.5,27.3,40.9,25.7,40.9"></path></g></svg>